<svg id="Layer_1" data-name="Layer 1" xmlns="http://www.w3.org/2000/svg" viewBox="0 0 93.69 117.05"><defs><style>.cls-1{fill:#35abe2;}.cls-2{fill:#0f4260;}.cls-3{fill:#f8971d;}.cls-4{fill:#0e4260;}.cls-5{fill:#fff;}.cls-6{fill:#ef9c40;}</style></defs><title>logo</title><path class="cls-1" d="M126.54,66.27c0,7.89-3.71,15.1-9.85,20.64,0,0,0,0,0,0-7.05,6.37-17.28,10.53-28.78,11l-1.12,0h-1c-1.07,0-2.13,0-3.19-.09l-1-.07C70.85,97,61.39,92.94,54.75,87l0,0c-6.14-5.54-9.85-12.75-9.85-20.64,0-8.72,4.53-16.62,11.86-22.35.7-.54,1.42-1.07,2.17-1.58A43.4,43.4,0,0,1,66,38.47a45,45,0,0,1,5.09-1.83,52,52,0,0,1,29.32,0,46,46,0,0,1,5.14,1.87,43.33,43.33,0,0,1,7.29,4c.74.51,1.46,1,2.14,1.61C122.14,49.89,126.54,57.68,126.54,66.27Z" transform="translate(-38.15 -27.48)"/><path class="cls-2" d="M116.69,86.91s0,0,0,0c-7.05,6.37-17.28,10.53-28.78,11l-1.12,0h-1c-1.07,0-2.13,0-3.19-.09l-1-.07C70.85,97,61.39,92.94,54.75,87l0,0,.94-22.56,1.07-20.43.87-16.44h0c2.79,3.9,7.55,7.13,13.49,9.16A45.72,45.72,0,0,0,85.75,39a46.92,46.92,0,0,0,14.68-2.29c.84-.29,1.66-.59,2.46-.91,5-2,9-4.9,11.38-8.29L115,44.19l.9,20Z" transform="translate(-38.15 -27.48)"/><path class="cls-3" d="M114,67l-1.53-34.34h0C107.9,39,97.46,43.4,85.75,43.4S64,39,59.44,32.64h0L57.59,67.13l-.88,16.75C61.92,90,73,94.25,85.84,94.25S109.57,90,114.69,83.88Z" transform="translate(-38.15 -27.48)"/><path class="cls-4" d="M97.37,48.22A12.68,12.68,0,0,0,86.83,52a.8.8,0,0,1-.56.24H84.16a.8.8,0,0,1-.57-.24,12.7,12.7,0,1,0-2.84,19.94L85,78.46a.63.63,0,0,0,1.06,0l4-6.34a12.71,12.71,0,1,0,7.33-23.9Z" transform="translate(-38.15 -27.48)"/><path class="cls-5" d="M74.51,69.48a8.63,8.63,0,1,1,8.63-8.63A8.64,8.64,0,0,1,74.51,69.48Zm0-15.23a6.61,6.61,0,1,0,6.6,6.6A6.61,6.61,0,0,0,74.51,54.25Z" transform="translate(-38.15 -27.48)"/><path class="cls-5" d="M95.92,69.48a8.63,8.63,0,1,1,8.63-8.63A8.64,8.64,0,0,1,95.92,69.48Zm0-15.23a6.61,6.61,0,1,0,6.6,6.6A6.62,6.62,0,0,0,95.92,54.25Z" transform="translate(-38.15 -27.48)"/><circle class="cls-6" cx="39.43" cy="29.9" r="1.95"/><circle class="cls-6" cx="60.84" cy="29.9" r="1.95"/><path class="cls-3" d="M64.32,118.27A6.34,6.34,0,0,0,66.09,116a6.27,6.27,0,0,0,.57-2.58,3.89,3.89,0,0,0-.65-2.11,7.5,7.5,0,0,0-1.79-1.88,14.46,14.46,0,0,0-2.68-1.58,21.18,21.18,0,0,0-3.31-1.22,28.5,28.5,0,0,0-3.7-.79,27.67,27.67,0,0,0-3.84-.28,23.73,23.73,0,0,0-3.19.22,17,17,0,0,0-3,.69A12.32,12.32,0,0,0,42,107.63a8.31,8.31,0,0,0-2,1.74,7.67,7.67,0,0,0-1.32,2.34,8.67,8.67,0,0,0-.48,3c0,1.13.25,1.7.75,1.7s.83-.33,1.4-1a18.56,18.56,0,0,0,2-3,4.79,4.79,0,0,1,1.58-1.31,10.27,10.27,0,0,1,2.38-.94,17.78,17.78,0,0,1,2.9-.54,28.82,28.82,0,0,1,3.18-.13c.84,0,1.68,0,2.5.11a21.11,21.11,0,0,1,2.35.33,17.47,17.47,0,0,1,2.06.57,8.44,8.44,0,0,1,1.65.79,3.84,3.84,0,0,1,1.09,1,2.15,2.15,0,0,1,.39,1.25,4,4,0,0,1-.5,1.94,5,5,0,0,1-1.42,1.58,7.35,7.35,0,0,1-2.23,1.08,9.93,9.93,0,0,1-2.93.4c-.47,0-.9,0-1.3-.06s-.84-.06-1.32-.06a3.22,3.22,0,0,0-.86.09,1,1,0,0,0-.47.25.72.72,0,0,0-.2.43,3.7,3.7,0,0,0,0,.62,1.89,1.89,0,0,0,.38,1.22,2.83,2.83,0,0,0,1,.79,6.11,6.11,0,0,0,1.37.52l1.57.43c.53.14,1.06.3,1.57.48a5.1,5.1,0,0,1,1.37.72,3.57,3.57,0,0,1,1,1.11,3.36,3.36,0,0,1,.37,1.67,6.56,6.56,0,0,1-.63,3.06,5.64,5.64,0,0,1-1.68,2,7,7,0,0,1-2.4,1.12,10.78,10.78,0,0,1-2.79.36,11.91,11.91,0,0,1-2.37-.24,18.67,18.67,0,0,1-2.21-.59.61.61,0,0,1-.2-.32,2.84,2.84,0,0,1-.11-.48,2.92,2.92,0,0,1-.05-.5v-.38c0-.57,0-1.16,0-1.79s0-1.24.08-1.87.07-1.27.11-1.93.08-1.25.14-1.79q.14-1.43.36-2.91a20.69,20.69,0,0,1,.52-2.5,20.18,20.18,0,0,1,.83-2.31,11.81,11.81,0,0,1,1.33-2.37,2.39,2.39,0,0,0-2.06-1.39,4,4,0,0,0-2.18.83,18.11,18.11,0,0,0-2.11,4.19A29.2,29.2,0,0,0,43.05,122c-.29,2-.48,3.91-.58,5.9s-.14,3.92-.14,5.81a.83.83,0,0,0,.36.78,2.63,2.63,0,0,0,.84.33c.71.24,1.46.46,2.26.67s1.62.39,2.44.54,1.65.27,2.46.36a21,21,0,0,0,2.32.13,12.75,12.75,0,0,0,3.19-.37,10.53,10.53,0,0,0,2.61-1,8.63,8.63,0,0,0,2-1.52,9.07,9.07,0,0,0,1.44-1.87,8.6,8.6,0,0,0,1.15-4.2,8.13,8.13,0,0,0-.43-2.62,6,6,0,0,0-1.26-2.21,6.15,6.15,0,0,0-2.1-1.47,7.32,7.32,0,0,0-2.92-.54,14.78,14.78,0,0,0,4.52-.71A9.74,9.74,0,0,0,64.32,118.27Z" transform="translate(-38.15 -27.48)"/><path class="cls-3" d="M83.28,117.28a3.64,3.64,0,0,0,1.39-.24,3.18,3.18,0,0,0,1-.65,2.41,2.41,0,0,0,.55-.92,3.13,3.13,0,0,0,.18-1,2.34,2.34,0,0,0-.22-1,1.81,1.81,0,0,0-.58-.7,2.77,2.77,0,0,0-.85-.39,4.44,4.44,0,0,0-1-.13,3.55,3.55,0,0,0-1.48.28,3,3,0,0,0-1,.69,2.73,2.73,0,0,0-.51.88,2.47,2.47,0,0,0-.16.83,2.36,2.36,0,0,0,.67,1.77A2.82,2.82,0,0,0,83.28,117.28Z" transform="translate(-38.15 -27.48)"/><path class="cls-3" d="M130.62,127a13.58,13.58,0,0,1-1.23,1.12c-.41.31-.81.59-1.2.85s-.79.49-1.18.7l-1.16.66a11.2,11.2,0,0,0,.77-1.42,9,9,0,0,0,.46-1.39,10.78,10.78,0,0,0,.23-1.42c0-.48.06-1,.06-1.54a6.25,6.25,0,0,0-.27-1.84,5,5,0,0,0-.78-1.55,4,4,0,0,0-1.23-1.08,3.31,3.31,0,0,0-1.67-.41,2.22,2.22,0,0,0-1.47.66,16.13,16.13,0,0,0-1.62,1.75l-.26-.17c.74-.89,1.48-1.85,2.23-2.86a30,30,0,0,0,2-3.11,18.81,18.81,0,0,0,1.47-3.18,9.21,9.21,0,0,0,.56-3.1,16.47,16.47,0,0,0-.12-2,4.78,4.78,0,0,0-.52-1.65,3,3,0,0,0-1.13-1.12,3.91,3.91,0,0,0-1.94-.41,2.86,2.86,0,0,0-2,.87,9.26,9.26,0,0,0-1.72,2.31,22.69,22.69,0,0,0-1.43,3.3,26,26,0,0,0-1,4c-.25,1.46-.47,2.67-.64,3.64-.16,1.27-.29,2.43-.39,3.47s-.39,2.4-.61,4.4c-.08.71-.14,1.36-.2,2-.17.13-.33.27-.52.4a16.52,16.52,0,0,1-1.89,1.22,12.94,12.94,0,0,1-2,.93,6.07,6.07,0,0,1-2,.38,2.62,2.62,0,0,1-.57-.07,1.67,1.67,0,0,1-.5-.21,2.37,2.37,0,0,1-.47-.44,5,5,0,0,1-.47-.7,10.41,10.41,0,0,0,2.57-1,9.19,9.19,0,0,0,2-1.52,8.58,8.58,0,0,0,1.51-2,4.64,4.64,0,0,0,.64-2.16,4.05,4.05,0,0,0-.32-1.63,3.59,3.59,0,0,0-.88-1.25,4,4,0,0,0-1.33-.8,4.65,4.65,0,0,0-1.65-.28,4.92,4.92,0,0,0-2,.38,6.05,6.05,0,0,0-1.61,1,7,7,0,0,0-1.25,1.51,9.33,9.33,0,0,0-.89,1.79c-.24.63-.47,1.35-.69,2.15a8.19,8.19,0,0,0-.33,2.09c0,.1,0,.18,0,.27-.17.13-.32.26-.5.39A17.45,17.45,0,0,1,99.6,130a12.64,12.64,0,0,1-2.06.93,6,6,0,0,1-2,.38,2.62,2.62,0,0,1-.57-.07,1.67,1.67,0,0,1-.5-.21,2.12,2.12,0,0,1-.47-.44,5,5,0,0,1-.47-.7,10.57,10.57,0,0,0,2.57-1,9.19,9.19,0,0,0,2-1.52,8.55,8.55,0,0,0,1.5-2,4.67,4.67,0,0,0,.65-2.16,4.05,4.05,0,0,0-.32-1.63,3.59,3.59,0,0,0-.88-1.25,4.14,4.14,0,0,0-1.33-.8,4.69,4.69,0,0,0-1.65-.28,4.92,4.92,0,0,0-2,.38,5.9,5.9,0,0,0-1.61,1,7,7,0,0,0-1.25,1.51,10,10,0,0,0-.9,1.79c-.06.17-.12.36-.19.55a23.46,23.46,0,0,1-2.39.89,19.36,19.36,0,0,1-2.23.5c-.65.11-1.26.17-1.81.21s-1.12.1-1.71.2l.89-2.91c0-.15.12-.37.19-.63s.17-.59.25-.9.16-.62.22-.89a3.27,3.27,0,0,0,.09-.61,1.17,1.17,0,0,0-.25-.69.92.92,0,0,0-.8-.34c-.24,0-.49,0-.73,0a2.7,2.7,0,0,0-.71.12,1.83,1.83,0,0,0-.63.3,1.87,1.87,0,0,0-.5.57,7.27,7.27,0,0,0-.49,1.21c-.17.52-.33,1.12-.49,1.8s-.32,1.45-.47,2.35l-.42,2.5-.09.55-.13.09A17.31,17.31,0,0,1,76.09,130,13,13,0,0,1,74,131a6,6,0,0,1-2,.38,2.45,2.45,0,0,1-.56-.07,1.57,1.57,0,0,1-.5-.21,2.12,2.12,0,0,1-.47-.44,4.24,4.24,0,0,1-.47-.7,10.5,10.5,0,0,0,2.56-1,9.26,9.26,0,0,0,2-1.52,8.83,8.83,0,0,0,1.5-2,4.64,4.64,0,0,0,.64-2.16,4.05,4.05,0,0,0-.31-1.63,3.75,3.75,0,0,0-.89-1.25,4,4,0,0,0-1.32-.8,4.69,4.69,0,0,0-1.65-.28,4.86,4.86,0,0,0-2,.38,5.75,5.75,0,0,0-1.61,1,7.38,7.38,0,0,0-1.26,1.51,10,10,0,0,0-.89,1.79c-.24.63-.47,1.35-.69,2.15a8.19,8.19,0,0,0-.33,2.09,9.07,9.07,0,0,0,.37,2.57,6.5,6.5,0,0,0,1.11,2.14,5.43,5.43,0,0,0,1.86,1.48,5.71,5.71,0,0,0,2.59.55,8,8,0,0,0,1.88-.22,10.72,10.72,0,0,0,1.79-.59,11.62,11.62,0,0,0,1.65-.84l.22-.14c-.06.33-.12.64-.17.9a5.37,5.37,0,0,0-.11.89,35.52,35.52,0,0,0,.21,4.08,12.55,12.55,0,0,0,.7,3,4.61,4.61,0,0,0,1.26,1.89,2.87,2.87,0,0,0,1.89.65,3.45,3.45,0,0,0,2.07-.62,5.07,5.07,0,0,0,1.41-1.57,8.57,8.57,0,0,0,.89-2.07,16.58,16.58,0,0,0,.48-2.15c.1-.68.16-1.27.19-1.77s0-.82,0-1a11.38,11.38,0,0,0-.25-2.33c-.16-.77-.32-1.48-.46-2.13s-.43-1.45-.69-2.14a13.13,13.13,0,0,0,2-.19,19,19,0,0,0,1.91-.45q.38-.12.75-.27c0,.08,0,.18,0,.26a8.73,8.73,0,0,0,.37,2.57,6.14,6.14,0,0,0,1.11,2.14,5.39,5.39,0,0,0,1.85,1.48,5.74,5.74,0,0,0,2.59.55,7.92,7.92,0,0,0,1.88-.22,11.15,11.15,0,0,0,1.8-.59,12.79,12.79,0,0,0,1.65-.84c.52-.32,1-.64,1.46-1,.24-.17.45-.37.68-.55a6.13,6.13,0,0,0,.7,1.13,5.39,5.39,0,0,0,1.85,1.48,5.74,5.74,0,0,0,2.59.55,8,8,0,0,0,1.89-.22,11.36,11.36,0,0,0,1.79-.59,12.79,12.79,0,0,0,1.65-.84c.39-.24.74-.48,1.09-.72,0,.09,0,.19,0,.28.56.41,1.14.81,1.75,1.2a11.6,11.6,0,0,0,2.39.83c.14,0,1,.06,2.69.06h.4c.4-.16.78-.32,1.13-.49s.61-.31.93-.49a3.54,3.54,0,0,0,.73-.54c.74-.17,1.45-.36,2.11-.58a15,15,0,0,0,1.9-.75,15.19,15.19,0,0,0,1.78-1,18.55,18.55,0,0,0,1.74-1.39Zm-60.94-.47a4.54,4.54,0,0,1,.3-1.22c.17-.5.33-.92.46-1.25a3.31,3.31,0,0,1,.52-.9,2.51,2.51,0,0,1,.82-.65,2.59,2.59,0,0,1,1.17-.25.75.75,0,0,1,.64.45,2.23,2.23,0,0,1,.26,1.15,2.34,2.34,0,0,1-.55,1.26,5.82,5.82,0,0,1-1.14,1.21,6.13,6.13,0,0,1-1.26.74,3.23,3.23,0,0,1-1.25.28C69.65,127.09,69.66,126.82,69.68,126.5Zm13.4,10.67a14.13,14.13,0,0,1-.19,1.82,4.58,4.58,0,0,1-.46,1.41.93.93,0,0,1-.83.57.47.47,0,0,1-.3-.15,1.6,1.6,0,0,1-.33-.51,4.34,4.34,0,0,1-.28-.93,8.31,8.31,0,0,1-.11-1.45,39.52,39.52,0,0,1,.33-5.17c.12-1,.25-1.93.37-2.89l.06-.43.21-1.65c.31,1,.58,1.93.83,2.86.09.42.17.83.26,1.25s.16.84.25,1.25.14.8.18,1.19.05.73.05,1C83.12,135.92,83.11,136.52,83.08,137.17ZM93.2,126.5a4.46,4.46,0,0,1,.29-1.22c.18-.5.33-.92.46-1.25a3.34,3.34,0,0,1,.53-.9,2.58,2.58,0,0,1,.81-.65,2.62,2.62,0,0,1,1.17-.25.76.76,0,0,1,.65.45,2.33,2.33,0,0,1,.26,1.15,2.37,2.37,0,0,1-.56,1.26,5.52,5.52,0,0,1-2.4,2,3.2,3.2,0,0,1-1.25.28C93.16,127.09,93.17,126.82,93.2,126.5Zm12.61,0a4.87,4.87,0,0,1,.29-1.22c.18-.5.33-.92.46-1.25a3.34,3.34,0,0,1,.53-.9,2.58,2.58,0,0,1,.81-.65,2.62,2.62,0,0,1,1.17-.25.76.76,0,0,1,.65.45,2.33,2.33,0,0,1,.26,1.15,2.37,2.37,0,0,1-.56,1.26,5.57,5.57,0,0,1-2.39,2,3.27,3.27,0,0,1-1.25.28C105.78,127.09,105.79,126.82,105.81,126.5Zm12.74-7.19c.12-.56.25-1.19.39-1.86l.45-2.17q.24-1.16.54-2.25c.2-.74.4-1.44.61-2.11a17.62,17.62,0,0,1,.65-1.78,6,6,0,0,1,.67-1.23.89.89,0,0,1,.65-.45.53.53,0,0,1,.42.18,1.14,1.14,0,0,1,.25.39,1.78,1.78,0,0,1,.1.43,2.57,2.57,0,0,1,0,.27,11.71,11.71,0,0,1-.36,2.21,16.79,16.79,0,0,1-.69,2.15c-.28.7-.59,1.39-.93,2.06s-.69,1.33-1,2-.71,1.25-1.06,1.85-.67,1.16-1,1.71C118.34,120.33,118.44,119.87,118.55,119.31Zm5.19,7.22c-.06.49-.13,1-.24,1.48a11.2,11.2,0,0,1-.41,1.43,6,6,0,0,1-.61,1.22,3.09,3.09,0,0,1-.79.85,1.6,1.6,0,0,1-1,.32,6.67,6.67,0,0,0-1,.08,2.63,2.63,0,0,1-1,0l-1-.27c0-.38.09-.77.14-1.2s.09-.79.15-1.26c.14-1.25.22-1.88.22-1.91q-.18-.33.54-1.83a4.52,4.52,0,0,1,.84-1.27,3,3,0,0,1,1-.72,2.78,2.78,0,0,1,1.11-.24,2.73,2.73,0,0,1,1,.17,1.58,1.58,0,0,1,.63.44,1.45,1.45,0,0,1,.32.63,3.1,3.1,0,0,1,.09.76A12.93,12.93,0,0,1,123.74,126.53Z" transform="translate(-38.15 -27.48)"/></svg>